# xmcd
#
# Track frame offsets: 
#        150
#        21909
#        39221
#        57564
#        81371
#        105883
#        128344
#        147253
#        166361
#        186116
#        207279
#        224828
#
# Disc length: 3229 seconds
#
# Revision: 2
# Processed by: cddbd v1.5.2PL0 Copyright (c) Steve Scherf et al.
# Submitted via: ExactAudioCopy v1.3
#
DISCID=a60c9b0c
DTITLE=溝口肇 - yours;Luxe
DYEAR=2010
DGENRE=New Age
TTITLE0=Ave Maria
TTITLE1=Bittersweet Samba
TTITLE2=Wave
TTITLE3=You Raise Me Up
TTITLE4=There Must Be An Angel
TTITLE5=What A Wonderful World
TTITLE6=Alfie
TTITLE7=Overjoyed
TTITLE8=Mas Que Nada
TTITLE9=Hero
TTITLE10=You Are Everything
TTITLE11=Unforgettable
EXTD=YEAR: 2010
EXTT0=
EXTT1=
EXTT2=
EXTT3=
EXTT4=
EXTT5=
EXTT6=
EXTT7=
EXTT8=
EXTT9=
EXTT10=
EXTT11=
PLAYORDER=
